<?xml version="1.0" encoding="utf-8"?>
<!-- Generator: Adobe Illustrator 22.1.0, SVG Export Plug-In . SVG Version: 6.00 Build 0)  -->
<svg version="1.1" id="vod.pl" xmlns="http://www.w3.org/2000/svg" xmlns:xlink="http://www.w3.org/1999/xlink" x="0px" y="0px"
	 viewBox="0 0 333.3 174.8" style="enable-background:new 0 0 333.3 174.8;" xml:space="preserve">
<rect x="280.8" y="17.3" style="fill:#1E2DE1;" width="52.7" height="157.7"/>
<rect x="17.3" y="17.3" style="fill:#1BDBF2;" width="52.7" height="157.7"/>
<rect x="70" y="17.3" style="fill:#00FF23;" width="52.7" height="157.7"/>
<rect x="122.7" y="17.3" style="fill:#FFFF00;" width="52.7" height="157.7"/>
<rect x="175.4" y="17.3" style="fill:#FF2626;" width="52.7" height="157.7"/>
<rect x="228.1" y="17.3" style="fill:#B83AFF;" width="52.7" height="157.7"/>
<rect x="0.7" y="0.3" style="fill:#141414;" width="315.4" height="157.7"/>
<path style="fill:#FFFFFF;" d="M126,63.9c4.4,4.3,6.5,9.8,6.5,16.4c0,6.6-2.2,12.1-6.5,16.4c-4.4,4.3-10,6.5-16.8,6.5
	c-6.8,0-12.4-2.2-16.8-6.5c-4.4-4.3-6.5-9.8-6.5-16.4c0-6.6,2.2-12.1,6.5-16.4c4.4-4.3,10-6.5,16.8-6.5
	C116,57.4,121.6,59.6,126,63.9z M101.9,87.8c1.8,2,4.3,2.9,7.2,2.9c3,0,5.4-1,7.2-2.9c1.8-2,2.8-4.5,2.8-7.6c0-3.1-0.9-5.6-2.8-7.6
	c-1.8-2-4.3-2.9-7.2-2.9c-3,0-5.4,1-7.2,2.9c-1.8,2-2.8,4.5-2.8,7.6C99.2,83.3,100.1,85.9,101.9,87.8z"/>
<path style="fill:#FFFFFF;" d="M181.7,44.4v35.4c0,7.1-2.1,12.7-6.4,16.9c-4.3,4.2-9.9,6.3-16.8,6.3c-6.8,0-12.4-2.2-16.8-6.5
	c-4.4-4.3-6.5-9.8-6.5-16.4c0-3.8,0.6-7.2,1.9-10.3c1.3-3,3-5.4,5-7.2c2.1-1.8,4.3-3.1,6.7-4c2.4-0.9,4.8-1.4,7.2-1.4
	c9.7,0,12.6,4.6,12.6,4.6V44.4H181.7z M151.3,87.8c1.8,2,4.3,2.9,7.2,2.9c3,0,5.4-1,7.2-2.9c1.8-2,2.8-4.5,2.8-7.6
	c0-3.1-0.9-5.6-2.8-7.6c-1.8-2-4.3-2.9-7.2-2.9c-3,0-5.4,1-7.2,2.9c-1.8,2-2.8,4.5-2.8,7.6C148.6,83.3,149.5,85.9,151.3,87.8z"/>
<path style="fill:#FFFFFF;" d="M198.2,100.6c-1.6,1.6-3.6,2.4-6,2.4c-2.4,0-4.4-0.8-6-2.4c-1.6-1.6-2.4-3.6-2.4-6
	c0-2.4,0.8-4.4,2.4-6c1.6-1.6,3.6-2.4,6-2.4c2.4,0,4.4,0.8,6,2.4c1.6,1.6,2.4,3.6,2.4,6C200.6,97,199.8,99,198.2,100.6z"/>
<path style="fill:#FFFFFF;" d="M268.3,101.9h-13.2V44.4h13.2V101.9z"/>
<polygon style="fill:#FFFFFF;" points="75.4,58.5 64.3,81.9 53.2,58.5 38,58.5 57.1,95.8 60.1,101.8 68.5,101.8 71.6,95.8 
	90.7,58.5 "/>
<path style="fill:#FFFFFF;" d="M205.3,116V80.7c0-7.1,2.1-12.7,6.4-16.9c4.3-4.2,9.9-6.3,16.8-6.3c6.8,0,12.4,2.2,16.8,6.5
	c4.4,4.3,6.5,9.8,6.5,16.4c0,3.8-0.6,7.2-1.9,10.3c-1.3,3-3,5.4-5,7.2c-2.1,1.8-4.3,3.1-6.7,4c-2.4,0.9-4.8,1.4-7.2,1.4
	c-9.7,0-12.6-4.6-12.6-4.6V116H205.3z M235.7,72.6c-1.8-2-4.3-2.9-7.2-2.9c-3,0-5.4,1-7.2,2.9c-1.8,2-2.8,4.5-2.8,7.6
	c0,3.1,0.9,5.6,2.8,7.6c1.8,2,4.3,2.9,7.2,2.9c3,0,5.4-1,7.2-2.9c1.8-2,2.8-4.5,2.8-7.6C238.5,77.1,237.6,74.6,235.7,72.6z"/>
</svg>
